<?xml version="1.0" encoding="UTF-8" standalone="no"?>
<svg xmlns:rdf="http://www.w3.org/1999/02/22-rdf-syntax-ns#" xmlns="http://www.w3.org/2000/svg" height="46.17mm" width="276.7mm" version="1.1" xmlns:cc="http://creativecommons.org/ns#" xmlns:xlink="http://www.w3.org/1999/xlink" viewBox="0 0 980.28023 163.60091" xmlns:dc="http://purl.org/dc/elements/1.1/">
 <defs>
  <linearGradient id="a">
   <stop stop-color="#4b4b4b" offset="0"/>
   <stop stop-color="#737373" offset=".6215"/>
   <stop stop-color="#4b4b4b" offset=".6237"/>
   <stop stop-color="#4b4b4b" offset="1"/>
  </linearGradient>
  <filter id="d" style="color-interpolation-filters:sRGB" height="1.261" width="1.157" y="-.1304" x="-.07874">
   <feGaussianBlur stdDeviation="5.5624725"/>
  </filter>
  <clipPath id="e" clipPathUnits="userSpaceOnUse">
   <path clip-rule="evenodd" d="m1888 1898c-13.83 19.69-44.5 36.78-77.68 42.8l4.408-11.31c23.12-4.646 44.32-16.48 54.53-30.24l18.74-1.241zm-38.7-57.22c34.25 3.457 51.79 21.87 45.41 43.73l-19.19 0.9541c2.364-14.49-10.04-26.15-32.39-28.85l6.171-15.84zm-98.06 66.28c0.9614 14.54 17.45 24.02 40.59 24.55l-4.158 11.53c-34.64 0.7588-60.42-12.67-61.19-34.44l24.77-1.64zm-21.11-14.37c12.46-26.08 52.74-47.88 94.44-51.86l-5.856 16.23c-27.18 3.837-52.76 17.68-63.01 34.35l-25.57 1.271z"/>
  </clipPath>
  <linearGradient id="c" y2="1949" xlink:href="#a" gradientUnits="userSpaceOnUse" x2="1796" gradientTransform="matrix(1.25 0 0 -1.25 -2321 2855)" y1="1833" x1="1825">
   <stop stop-color="#981d22" offset="0"/>
   <stop stop-color="#cb2831" offset=".9555"/>
   <stop stop-color="#bb252d" offset="1"/>
  </linearGradient>
  <radialGradient id="b" xlink:href="#a" gradientUnits="userSpaceOnUse" cy="367.4" cx="129.4" gradientTransform="matrix(2.006 .01092 -.001265 .2323 -129.5 328.6)" r="87.27"/>
 </defs>
 <g transform="translate(171 -426.1)">
  <g fill="url(#b)" transform="matrix(3.82 0 0 3.82 -83.16 -1126)">
   <path d="m66.73 439.9v-3.24h-10.72v-24.56h-4v27.8h14.72z"/>
   <path d="m74.41 439.9v-19.68h-3.96v19.68h3.96zm0.44-26.24c0-1.8-0.52-2.32-2.44-2.32-1.88 0-2.4 0.52-2.4 2.32s0.52 2.32 2.4 2.32c1.92 0 2.44-0.52 2.44-2.32z"/>
   <path d="m92.83 420.2-3.4 10.36c-0.76 2.4-1.2 4.12-1.84 6.64h-0.08c-0.64-2.52-1.08-4.12-1.84-6.64l-3.36-10.36h-4.04l6.44 19.68h5.48l6.48-19.68h-3.84z"/>
   <path d="m115.1 428.7c0-7.24-2.24-9.12-7.44-9.12s-8.6 2.28-8.6 10.52c0 8.56 3.2 10.2 8.64 10.2 2.36 0 4.4-0.32 6.44-0.8l-0.32-2.92c-1.88 0.4-3.44 0.68-5.4 0.68-3.72 0-5.32-0.8-5.4-6.24h12c0.04-0.88 0.08-1.56 0.08-2.32zm-12.04-0.32c0.12-4.64 1.68-5.8 4.44-5.8 2.8 0 3.96 1.04 4.04 5.8h-8.48z"/>
   <path d="m131.1 437.3c-5.04 0-7.32-1.6-7.32-11.36 0-9.64 2.44-11.24 7.32-11.24 1.8 0 3.68 0.28 5.36 0.76l0.48-3.08c-1.8-0.52-3.96-0.84-6.12-0.84-7.08 0-11.04 2.72-11.04 14.56 0 11.88 3.4 14.36 10.72 14.36 2.2 0 4.52-0.44 6.44-0.92l-0.48-3.08c-1.76 0.48-3.64 0.84-5.36 0.84z"/>
   <path d="m157.3 429.9c0-8.32-3.12-10.32-8.68-10.32-5.52 0-8.8 2.28-8.8 10.52 0 8.28 3.08 10.36 8.64 10.36s8.84-2.32 8.84-10.56zm-3.96 0.12c0 6.16-1.6 7.4-4.76 7.4-3.2 0-4.8-1.24-4.8-7.44 0-6.16 1.6-7.36 4.76-7.36s4.8 1.24 4.8 7.4z"/>
   <path d="m179.5 439.9v-13.64c0-4.52-1.84-6.48-5.96-6.48-2.56 0-4.88 1-7.32 2.44l-0.24-2h-3.28v19.68h3.96v-14.8c2.2-1.4 4.04-2.12 5.68-2.12 2.2 0 3.24 0.96 3.24 4.04v12.88h3.92z"/>
   <path d="m190.3 420.2v-3.28c0-3.12 1.16-4.12 3.36-4.12 1 0 1.84 0.08 2.72 0.32l0.44-2.92c-0.96-0.24-2.24-0.44-3.52-0.44-4.76 0-6.96 1.84-6.96 7.32v3.12h-3.08v2.96h3.08v16.72h3.96v-16.72h8.52v16.72h3.96v-19.68h-12.48zm12.88-6.56c0-1.8-0.48-2.32-2.4-2.32-1.88 0-2.4 0.52-2.4 2.32s0.52 2.32 2.4 2.32c1.92 0 2.4-0.52 2.4-2.32z"/>
   <path d="m211.1 438.5c-2 0.96-3.64 2.48-3.64 4.96 0 3.6 2.32 5.72 8.8 5.72 6.68 0 9.4-2.72 9.4-6.56 0-2.8-1.32-4.04-4.52-4.76l-5.6-1.2c-2.56-0.52-3-1.04-3-1.76 0-0.56 0.32-0.96 1-1.4 0.68 0.28 1.64 0.44 2.84 0.44 5.4 0 7.96-2.04 7.96-7.2 0-1.88-0.4-2.96-1-3.68l3.24-0.32v-2.48h-6c-0.96-0.36-2.28-0.6-4.16-0.6-5.4 0-8 2-8 7.16 0 3.04 0.92 4.68 2.24 5.72-1.2 0.8-1.92 1.72-1.92 3 0 1.4 0.84 2.32 2.36 2.96zm8.2 2.08c1.72 0.36 2.52 1.08 2.52 2.4 0 1.84-1.36 3.44-5.44 3.44-4 0-5.08-1.32-5.08-3.32 0-1.88 1.4-2.96 3.2-3.56l4.8 1.04zm1.24-13.76c0 3.36-1.16 4.36-4.16 4.36s-4.16-1.04-4.16-4.44c0-3.36 1.16-4.36 4.16-4.36 2.96 0 4.16 1.04 4.16 4.44z"/>
  </g>
  <g fill-opacity=".3939" transform="matrix(1.19 0 0 -1.015 -2209 2420)" filter="url(#d)">
   <g fill-opacity=".3939" clip-path="url(#e)">
    <path d="m1888 1898c-13.83 19.69-44.5 36.78-77.68 42.8l4.408-11.31c23.12-4.646 44.32-16.48 54.53-30.24l18.74-1.241zm-38.7-57.22c34.25 3.457 51.79 21.87 45.41 43.73l-19.19 0.9541c2.364-14.49-10.04-26.15-32.39-28.85l6.171-15.84zm-98.06 66.28c0.9614 14.54 17.45 24.02 40.59 24.55l-4.158 11.53c-34.64 0.7588-60.42-12.67-61.19-34.44l24.77-1.64zm-21.11-14.37c12.46-26.08 52.74-47.88 94.44-51.86l-5.856 16.23c-27.18 3.837-52.76 17.68-63.01 34.35l-25.57 1.271z" fill-opacity=".3939" fill-rule="evenodd"/>
   </g>
  </g>
  <path d="m38.09 482.6c-17.29-24.62-55.63-45.97-97.1-53.49l5.51 14.14c28.9 5.808 55.41 20.6 68.16 37.8l23.42 1.552zm-48.38 71.53c42.81-4.321 64.74-27.34 56.77-54.66l-23.99-1.193c2.954 18.12-12.55 32.69-40.49 36.06l7.714 19.8zm-122.6-82.85c1.202-18.18 21.82-30.02 50.73-30.69l-5.198-14.41c-43.29-0.9485-75.53 15.83-76.49 43.05l30.96 2.05zm-26.38 17.96c15.57 32.6 65.92 59.84 118 64.82l-7.32-20.29c-33.97-4.796-65.95-22.1-78.76-42.94l-31.96-1.589z" fill-rule="evenodd" fill="url(#c)"/>
  <g fill="#666" transform="matrix(1.794 0 0 1.794 400.4 -699.2)">
   <path fill="#666" d="m212.8 639.7c0 4.52 2.92 7.32 7.56 7.32s7.56-2.8 7.56-7.32-2.92-7.32-7.56-7.32-7.56 2.8-7.56 7.32zm2 0c0-3.64 1.88-5.64 5.56-5.64s5.56 2 5.56 5.64-1.88 5.64-5.56 5.64-5.56-2-5.56-5.64zm9.12 4.08-2.12-3.48c1.2-0.2 2-0.96 2-2.48 0-1.56-1-2.28-3.36-2.28h-3.08v8.24h1.84v-3.32h0.64l1.96 3.32h2.12zm-2-5.8c0 0.8-0.36 1.2-1.72 1.2h-1v-2.2h1.16c1.24 0 1.56 0.24 1.56 1z"/>
  </g>
 </g>
</svg>
